<svg width="288" height="150" viewBox="0 0 288 150" fill="none" xmlns="http://www.w3.org/2000/svg">
<g clip-path="url(#clip0_8256_26540)">
<mask id="mask0_8256_26540" style="mask-type:luminance" maskUnits="userSpaceOnUse" x="0" y="0" width="288" height="150">
<path d="M288 0H0V149.76H288V0Z" fill="white"/>
</mask>
<g mask="url(#mask0_8256_26540)">
<path opacity="0.1" d="M182.823 36.864C182.362 36.7488 181.901 36.9792 181.901 37.44L181.21 39.9744L176.948 40.2048L169.114 39.5136C168.999 39.3984 168.999 39.5136 168.768 39.5136L159.092 42.2784C158.746 42.3936 158.516 42.7392 158.516 43.2L161.28 52.8768C161.396 53.2224 161.741 53.4528 162.202 53.4528C162.202 53.4528 162.317 53.3376 162.317 53.4528L164.506 52.416L158.631 72.576C158.516 73.0368 158.746 73.4976 159.207 73.4976L182.823 80.5248C183.284 80.64 183.744 80.4096 183.744 79.9488L189.735 59.904L191.002 61.8624C191.117 61.9776 191.348 62.208 191.463 62.208C191.693 62.3232 191.924 62.208 192.039 62.0928L199.412 56.3328C199.757 56.1024 199.757 55.5264 199.642 55.296L193.306 47.0016C193.191 46.8864 193.191 46.8864 193.076 46.7712L186.279 43.2L182.708 40.7808L183.284 38.9376C185.012 38.9376 186.279 37.6704 186.509 35.9424C186.509 34.2144 185.242 32.9472 183.514 32.7168C182.132 32.7168 180.864 33.5232 180.404 34.9056C180.288 35.3664 180.519 35.8272 180.98 35.8272C181.44 35.9424 181.901 35.712 181.901 35.2512C182.247 34.4448 183.053 33.984 183.86 34.2144C184.551 34.4448 185.127 35.3664 184.896 36.1728C184.436 36.5184 183.629 37.0944 182.823 36.864ZM181.556 41.3568L184.781 43.5456C183.975 45.504 181.671 46.3104 179.712 45.504C178.1 44.8128 177.293 43.0848 177.524 41.472L181.556 41.3568ZM197.914 55.0656L191.808 59.904L189.965 57.2544C189.735 56.9088 189.274 56.7936 188.928 57.024L188.583 57.3696L182.477 78.336L160.359 71.8848L166.58 50.688C166.695 50.2272 166.464 49.7664 166.004 49.7664C165.888 49.7664 165.543 49.6512 165.428 49.8816L162.548 51.264L160.244 43.2L168.884 40.6656L175.68 41.2416C175.335 44.2368 177.408 46.8864 180.404 47.232C182.708 47.4624 184.896 46.3104 185.933 44.2368L191.924 47.3472L197.914 55.0656Z" fill="black"/>
<g opacity="0.1">
<path d="M57.8295 33.0617L20.7351 23.0393C19.4679 22.6937 18.3159 23.5001 18.0855 24.7673L10.0215 54.7193C9.67588 55.8713 10.2519 57.0233 11.4039 57.4841L23.2695 60.7097L21.1959 63.1289L18.8919 62.5529C17.7399 62.2073 16.5879 62.8985 16.2423 64.0504C15.8967 65.2024 16.5879 66.3545 17.8551 66.5849L38.4759 72.1145C39.6279 72.4601 40.7799 71.7689 41.1255 70.7321C41.4711 69.6953 40.7799 68.4281 39.6279 68.0825L37.3239 67.5065L36.7479 64.3961L48.6135 67.6217C49.8807 67.9673 51.0327 67.1609 51.2631 65.8937L59.3271 35.8265C59.6727 34.5593 58.9815 33.2921 57.8295 33.0617ZM39.7431 70.0409C39.6279 70.3865 39.2823 70.6169 38.9367 70.5017L18.3159 64.9721C17.9703 64.8569 17.7399 64.5113 17.8551 64.1657C17.9703 63.8201 18.3159 63.5897 18.6615 63.7049L39.2823 69.2345C39.7431 69.3497 39.8583 69.6953 39.7431 70.0409ZM35.8263 66.9305L22.9239 63.4745L24.9975 61.0553L35.1351 63.8201L35.8263 66.9305ZM48.9591 66.0089L11.8647 56.1017C11.4039 55.9865 11.2887 55.5257 11.4039 55.1801L11.8647 53.3369L14.6295 54.1433C14.9751 54.2585 15.3207 54.0281 15.4359 53.6825C15.5511 53.3369 15.3207 52.9913 14.9751 52.8761L12.3255 51.8393L19.4679 24.9977C19.5831 24.5369 19.9287 24.3065 20.3895 24.4217L57.4839 34.3289C57.9447 34.444 58.0599 34.9049 57.9447 35.2505L50.6871 61.9769L17.7399 53.1065C17.3943 52.9913 17.0487 53.2217 16.9335 53.5673C16.8183 53.9129 17.0487 54.2585 17.3943 54.3737L50.3415 63.3593L49.8807 65.2024C49.8807 65.6632 49.4199 66.0089 48.9591 66.0089ZM20.2743 30.4121C20.5047 30.4121 20.6199 30.4121 20.7351 30.2969L24.3063 28.2233C24.5367 28.1081 24.7671 27.6473 24.5367 27.1865C24.4215 26.9561 23.9607 26.7257 23.6151 26.9561L20.0439 29.0297C19.8135 29.1449 19.5831 29.6057 19.8135 30.0665C19.9287 30.1817 20.1591 30.2969 20.2743 30.4121ZM28.7991 28.3385C28.6839 28.1081 28.2231 27.8777 27.7623 28.1081L19.0071 33.1769C18.7767 33.2921 18.4311 33.7529 18.7767 34.2137C19.1223 34.6745 19.3527 34.7897 19.8135 34.4441L28.5687 29.3753C28.7991 29.1449 28.9143 28.7993 28.7991 28.3385Z" fill="black"/>
</g>
<g opacity="0.1">
<path d="M261.62 23.0396C260.352 23.3852 258.855 23.7308 257.703 24.6524L253.325 18.7772L252.288 13.478L257.818 12.4412C259.085 12.0956 260.007 10.9436 259.776 9.67642C259.661 9.21562 259.316 8.87002 258.855 8.98522C258.394 9.10042 258.164 9.44602 258.164 9.90682C258.164 10.3676 257.933 10.8284 257.472 10.8284L251.021 12.0956C250.56 12.2108 250.33 12.5564 250.33 13.0172L251.597 19.0076L245.722 25.6892C245.376 26.15 244.916 26.3804 244.34 26.6108L241.114 27.1868L237.197 21.8876C236.852 21.6572 236.391 21.4268 236.16 21.7724C235.93 22.118 235.7 22.5788 236.045 22.8092L246.644 36.8636L243.188 37.5548C241.575 31.4492 235.239 27.7628 229.248 29.4908C223.258 31.2188 219.456 37.3244 221.184 43.43C222.797 49.5356 229.133 53.222 235.124 51.494C239.501 50.2268 242.957 46.4252 243.418 41.702C243.418 41.2412 243.188 40.8956 242.727 40.7804C242.266 40.6652 241.92 41.0108 241.805 41.4716C241.229 46.886 236.276 50.6876 230.976 50.1116C225.562 49.5356 221.645 44.582 222.336 39.2828C223.028 33.9836 227.866 30.0668 233.165 30.6428C237.082 31.1036 240.308 33.9836 241.46 37.67L239.962 38.0156C238.695 33.7532 234.087 31.2188 229.709 32.486C225.332 33.7532 222.912 38.3612 224.18 42.7388C225.447 47.1164 230.055 49.5356 234.432 48.2684C238.234 47.1164 240.538 43.5452 240.192 39.6284L248.141 38.0156C248.487 37.9004 248.602 37.67 248.832 37.4396L252.98 20.7356L256.551 25.4588C251.712 29.606 251.252 36.7484 255.168 41.5868C259.316 46.4252 266.458 47.0012 271.296 42.9692C276.135 38.822 276.596 31.6796 272.679 26.8412C269.799 23.6156 265.767 22.3484 261.62 23.0396ZM233.28 46.886C229.709 47.5772 226.253 45.158 225.562 41.702C224.871 38.246 227.175 34.6748 230.746 33.9836C234.087 33.2924 237.197 35.1356 238.234 38.3612L231.783 39.6284C231.322 39.7436 231.092 40.0892 231.092 40.55C231.092 41.0108 231.552 41.3564 232.013 41.2412L238.464 39.974C238.81 43.1996 236.621 46.31 233.28 46.886ZM247.68 35.4812L242.496 28.3388L244.916 27.878C245.837 27.7628 246.644 27.1868 247.22 26.4956L251.021 22.0028L247.68 35.4812ZM265.767 43.8908C260.468 44.9276 255.399 41.4716 254.247 36.1724C253.556 32.7164 254.708 29.2604 257.357 26.8412L258.394 28.2236C254.938 31.2188 254.823 36.4028 257.933 39.7436C260.928 43.0844 266.112 43.3148 269.453 40.3196C272.909 37.3244 273.024 32.1404 269.914 28.7996C267.38 25.9196 263.002 25.2284 259.661 27.302L258.74 25.9196C263.348 23.1548 269.453 24.5372 272.218 29.1452C274.983 33.7532 273.6 39.8588 268.992 42.6236C267.956 43.1996 266.804 43.6604 265.767 43.8908ZM264.384 33.7532L260.583 28.454C263.808 26.726 267.725 27.7628 269.453 30.8732C271.181 34.0988 270.144 38.0156 267.034 39.7436C263.924 41.4716 259.892 40.55 258.164 37.3244C256.666 34.5596 257.242 31.4492 259.316 29.3756L263.117 34.6748C263.463 34.9052 263.924 35.1356 264.154 34.79C264.615 34.6748 264.73 33.9836 264.384 33.7532ZM231.898 20.6204L241.229 18.7772C241.69 18.662 241.92 18.3164 241.92 17.8556L241.575 16.358C241.229 15.0908 240.077 14.1692 238.81 14.3996L230.976 15.8972C229.709 16.2428 228.788 17.3948 229.018 18.662C229.248 19.9292 230.516 20.8508 231.898 20.6204ZM231.207 17.3948L239.04 15.8972C239.501 15.782 239.962 16.1276 239.962 16.5884L240.077 17.3948L231.437 19.0076C230.976 19.1228 230.516 18.7772 230.516 18.3164C230.631 17.9708 230.746 17.51 231.207 17.3948Z" fill="black"/>
</g>
<g opacity="0.1">
<path d="M132.944 17.0501C132.138 17.1653 131.562 17.6261 131.101 18.2021L130.756 16.7045C130.295 14.4005 128.106 13.0181 125.802 13.4789L96.5411 19.6997C94.2371 20.1605 92.8547 22.3493 93.3155 24.6533L93.6611 26.1509C91.7027 25.3445 89.5139 26.1509 88.8227 28.1093C88.4771 28.8005 88.4771 29.6069 88.5923 30.2981C88.7075 30.6437 88.7075 30.9893 88.9379 31.4501L94.3523 41.0117C95.2739 42.6245 97.0019 43.4309 98.7299 42.9701L98.8451 47.0021C98.8451 47.4629 99.3059 47.8085 99.7667 47.8085H99.8819L101.495 47.4629C101.725 47.4629 102.071 47.2325 102.071 47.0021L104.144 41.8181L127.645 36.7493L131.677 40.6661C131.792 40.8965 132.138 40.8965 132.484 40.8965L134.096 40.5509C134.557 40.4357 134.788 40.0901 134.672 39.6293V39.5141L133.175 35.7125C134.903 35.3669 136.17 33.7541 136.4 32.1413L137.437 21.1973C137.437 20.8517 137.437 20.5061 137.322 20.0453C136.976 17.9717 135.018 16.7045 132.944 17.0501ZM96.8867 21.3125L126.148 15.0917C127.53 14.8613 128.912 15.6677 129.143 17.0501L130.064 21.1973L129.719 26.0357C128.912 25.2293 127.876 24.9989 126.724 25.2293L116.125 27.5333C115.204 27.7637 114.397 28.3397 113.936 29.1461C113.245 28.5701 112.208 28.3397 111.172 28.5701L100.573 30.8741C99.5363 31.1045 98.6147 31.9109 98.1539 32.8325L95.8499 28.5701L94.9283 24.4229C94.6979 23.0405 95.5043 21.6581 96.8867 21.3125ZM113.706 32.1413L99.8819 35.1365L99.6515 34.3301C99.4211 33.4085 99.9971 32.6021 100.919 32.3717L111.517 30.0677C112.439 29.8373 113.245 30.4133 113.476 31.3349L113.706 32.1413ZM129.143 28.8005L115.319 31.7957L115.088 30.9893C114.858 30.0677 115.434 29.2613 116.356 29.0309L126.954 26.7269C127.876 26.4965 128.682 27.0725 128.912 27.9941L129.143 28.8005ZM100.804 45.9653H100.573L100.458 42.6245L102.301 42.2789L100.804 45.9653ZM132.599 39.1685L129.719 36.4037L131.562 36.0581L132.829 39.1685H132.599ZM135.824 20.2757C135.824 20.5061 135.94 20.7365 135.824 20.8517L134.788 31.7957C134.672 32.8325 133.866 33.7541 132.829 33.9845L98.7299 41.2421C97.6931 41.4725 96.5411 41.0117 95.9651 40.0901L90.5507 30.5285C90.4355 30.2981 90.3203 30.1829 90.3203 29.9525C90.0899 28.8005 90.7811 27.7637 91.9331 27.5333C92.8547 27.3029 93.7763 27.7637 94.1219 28.4549L98.4995 36.5189C98.7299 36.8645 99.0755 36.9797 99.4211 36.8645L130.295 30.2981C130.64 30.1829 130.986 29.9525 130.986 29.6069L131.792 20.5061C131.908 19.4693 132.944 18.5477 133.981 18.6629C135.018 18.7781 135.594 19.3541 135.824 20.2757ZM100.573 25.2293L101.725 24.9989L101.956 26.1509L100.804 26.3813L100.573 25.2293ZM106.218 24.0773L107.37 23.8469L107.6 24.9989L106.448 25.2293L106.218 24.0773ZM111.863 22.9253L113.015 22.6949L113.245 23.8469L112.093 24.0773L111.863 22.9253ZM117.508 21.6581L118.66 21.4277L118.89 22.5797L117.738 22.8101L117.508 21.6581ZM123.152 20.5061L124.304 20.2757L124.535 21.4277L123.383 21.6581L123.152 20.5061Z" fill="black"/>
</g>
<g opacity="0.1">
<path d="M115.432 92.2757C113.819 91.2389 112.667 89.3957 112.437 87.4373C112.322 86.5157 112.206 85.4789 112.437 84.4421V84.3269V84.0965C112.437 84.0965 112.552 83.9813 112.437 83.8661L112.206 83.7509L112.091 83.6357C107.368 81.9077 105.525 80.1797 104.949 79.4885C104.834 79.2581 104.027 78.6821 103.912 78.6821H103.106L102.645 79.2581L97.2304 93.5429L88.0144 89.9717L87.8992 89.7413L85.48 83.0597C85.48 82.9445 85.48 82.9445 85.5952 82.8293C86.056 81.6773 85.3648 80.4101 84.328 79.9493L77.1856 77.1845C76.0336 76.7237 74.7664 77.4149 74.3056 78.4517C73.8448 79.4885 74.536 80.8709 75.5728 81.3317L82.7152 84.0965C83.2912 84.3269 83.752 84.3269 84.328 83.9813L86.632 89.2805H86.5168L82.024 87.5525C81.5632 87.3221 81.2176 87.5525 81.1024 87.8981L80.4112 89.8565C78.6832 94.4645 80.9872 99.4181 85.48 101.146L91.816 103.565L80.872 108.634C79.144 106.791 76.3792 106.445 74.536 108.289C72.6928 110.017 72.3472 112.781 74.1904 114.625C76.0336 116.468 78.6832 116.813 80.5264 114.97C82.024 113.703 82.4848 111.629 81.6784 109.901L93.6592 104.372L98.728 116.007C96.3088 117.044 95.3872 119.693 96.424 121.882C97.4608 124.301 100.11 125.223 102.299 124.186C104.718 123.149 105.64 120.5 104.603 118.311C103.912 116.583 102.069 115.546 100.226 115.546L95.3872 104.602L102.53 107.367C106.907 109.21 111.976 106.906 113.589 102.298L114.28 100.34C114.28 100.225 114.28 100.225 114.395 100.109C114.51 99.9941 114.395 99.9941 114.395 99.8789L114.28 99.7637C112.667 96.5381 115.317 92.3909 115.317 92.3909C115.317 92.3909 115.432 92.3909 115.432 92.2757ZM84.328 82.0229C84.0976 82.4837 83.8672 82.5989 83.4064 82.3685L76.264 79.6037C75.9184 79.4885 75.8032 79.0277 75.9184 78.6821C76.0336 78.3365 76.4944 78.2213 76.84 78.3365L83.9824 81.1013C84.2128 81.3317 84.4432 81.7925 84.328 82.0229ZM80.4112 112.781C79.8352 114.279 78.1072 115.085 76.6096 114.509C75.112 113.933 74.3056 112.205 74.8816 110.708C75.4576 109.21 77.1856 108.404 78.6832 108.98C80.1808 109.441 80.872 111.284 80.4112 112.781ZM101.378 117.505C102.875 118.081 103.682 119.809 103.106 121.306C102.53 122.804 100.802 123.61 99.304 123.034C97.8064 122.458 97 120.73 97.576 119.233C98.0368 117.62 99.7648 116.813 101.378 117.505ZM109.902 83.8661L109.557 84.0965L107.829 85.4789C107.483 85.8245 107.368 86.2853 107.598 86.6309C107.829 86.9765 108.29 87.0917 108.635 86.8613L109.902 85.9397L110.478 85.4789C110.478 87.7829 111.285 90.0869 112.782 91.6997L101.608 93.1973L100.341 93.3125L103.797 90.4325L106.101 88.5893C106.331 88.5893 106.446 88.4741 106.446 88.3589V88.2437C106.677 87.7829 106.446 87.4373 105.986 87.3221C105.755 87.2069 105.41 87.2069 105.294 87.4373L99.304 92.0453L103.682 80.2949H103.797C105.755 81.7925 107.714 82.9445 109.902 83.8661ZM86.056 99.8789C82.2544 98.3813 80.4112 94.3493 81.9088 90.4325L82.4848 89.1653L87.6688 91.1237L92.5072 102.183L86.056 99.8789ZM112.782 94.6949C112.322 96.0773 112.206 97.5749 112.437 99.0725L110.133 98.1509C109.672 97.9205 109.326 98.1509 109.211 98.4965C109.096 98.8421 109.211 99.3029 109.557 99.4181L112.552 100.57L111.976 101.837C110.478 105.639 106.446 107.482 102.53 105.985L94.12 102.874L89.2816 91.8149L106.562 98.3813C107.022 98.6117 107.368 98.3813 107.483 98.0357C107.598 97.6901 107.483 97.2294 107.138 97.1142L100.686 94.6949L111.976 93.3125L113.128 93.1973C113.128 93.7733 113.013 94.1189 112.782 94.6949ZM78.2224 109.786C77.3008 109.325 76.264 109.901 75.8032 110.823C75.3424 111.745 75.9184 112.781 76.84 113.242C77.7616 113.703 78.7984 113.127 79.2592 112.205C79.6048 111.399 79.144 110.247 78.2224 109.786ZM77.8768 111.86C77.7616 112.09 77.6464 112.09 77.416 112.09C77.1856 112.09 77.1856 111.745 77.1856 111.629C77.1856 111.514 77.5312 111.399 77.6464 111.399C77.7616 111.514 77.8768 111.514 77.8768 111.86ZM99.6496 121.882C100.571 122.343 101.608 121.767 102.069 120.845C102.414 120.039 101.954 118.887 101.032 118.426C100.11 117.965 99.0736 118.541 98.6128 119.463C98.2672 120.615 98.728 121.652 99.6496 121.882ZM99.88 120.154C99.88 120.039 100.226 119.924 100.341 119.924C100.571 120.039 100.571 120.269 100.571 120.385C100.571 120.5 100.341 120.615 100.11 120.615C99.9952 120.615 99.9952 120.269 99.88 120.154Z" fill="black"/>
</g>
<g opacity="0.1">
<path d="M186.048 111.052C185.703 111.167 185.472 111.513 185.472 111.858L192.96 136.857L189.159 138.009C184.666 139.391 180.404 141.234 176.372 143.538C175.911 143.884 175.22 143.769 174.874 143.423C176.832 141.119 179.482 139.506 182.477 138.585L190.656 136.166C191.002 136.05 191.232 135.705 191.232 135.359L189.735 130.521C189.62 130.175 189.274 129.945 188.928 129.945C188.583 129.945 188.352 130.406 188.352 130.751L189.62 135.014L182.132 137.318C179.136 138.124 176.602 139.852 174.298 142.156L168.653 123.263C168.538 122.918 168.192 122.687 167.847 122.687C167.501 122.802 167.271 123.148 167.271 123.494L172.916 142.386C169.92 141.695 166.695 141.81 163.7 142.732L156.212 145.036L148.724 120.038L159.437 116.812C162.317 115.89 165.312 117.503 166.234 120.268C166.234 120.383 166.234 120.383 166.349 120.498C166.464 120.844 166.81 121.074 167.156 121.074C167.501 120.959 167.732 120.614 167.732 120.268C166.81 117.388 168.423 114.393 171.188 113.471C171.303 113.471 171.303 113.471 171.418 113.356L182.132 110.13L187.546 128.217C187.661 128.562 188.007 128.793 188.352 128.793C188.698 128.678 188.928 128.332 188.928 127.986L183.284 109.209C183.168 108.863 182.823 108.633 182.477 108.633L171.072 111.974C168.538 112.78 166.695 114.854 166.234 117.503C164.391 115.545 161.626 114.738 159.092 115.545L147.687 118.886C147.341 119.001 147.111 119.346 147.111 119.692L155.06 146.073C155.175 146.418 155.52 146.649 155.866 146.649L164.045 144.23C166.925 143.308 170.036 143.308 173.031 144.114C172.916 144.69 172.34 145.036 171.764 145.151C167.04 145.497 162.548 146.303 158.055 147.57L154.253 148.722L146.765 123.724C146.65 123.378 146.304 123.148 145.959 123.148C145.613 123.263 145.383 123.609 145.383 123.954L153.101 149.644C153.216 149.99 153.562 150.22 153.908 150.22L158.4 148.838C162.893 147.57 167.156 146.649 171.764 146.418C172.8 146.303 173.837 145.727 174.298 144.69C175.22 145.382 176.372 145.266 177.293 144.69C181.325 142.386 185.472 140.658 189.965 139.391L194.458 138.009C194.804 137.894 195.034 137.548 195.034 137.202L187.431 111.513C186.855 111.167 186.394 110.822 186.048 111.052ZM164.391 120.268C163.124 119.807 161.626 119.922 160.244 120.268L152.295 122.687C151.949 122.802 151.719 123.033 151.719 123.494C151.834 123.839 152.18 124.07 152.525 124.07L160.474 121.65C161.511 121.42 162.663 121.42 163.7 121.766C164.16 121.881 164.506 121.65 164.621 121.305C164.852 120.844 164.852 120.383 164.391 120.268ZM180.173 114.393L172.224 116.812C170.957 117.273 169.805 118.079 168.768 119.116C168.653 119.462 168.653 119.922 168.884 120.038C169.114 120.153 169.69 120.268 169.92 119.922C170.612 119.116 171.533 118.54 172.685 118.194L180.634 115.775C180.98 115.66 181.21 115.314 181.21 114.969C180.98 114.278 180.634 114.162 180.173 114.393ZM165.428 123.724C164.16 123.263 162.663 123.378 161.28 123.724L153.332 126.143C152.986 126.258 152.756 126.604 152.756 126.95C152.871 127.295 153.216 127.526 153.562 127.526L161.511 125.106C162.548 124.876 163.7 124.876 164.736 125.222C165.197 125.337 165.543 125.106 165.658 124.761C165.773 124.415 165.888 123.724 165.428 123.724ZM181.21 117.734L173.261 120.153C171.994 120.614 170.842 121.42 169.805 122.457C169.575 122.802 169.575 123.263 169.92 123.494C170.266 123.724 170.727 123.724 170.957 123.378C171.648 122.572 172.57 121.996 173.722 121.65L181.671 119.231C182.016 119.116 182.247 118.77 182.247 118.425C182.132 117.849 181.671 117.618 181.21 117.734ZM166.464 127.18C165.197 126.719 163.7 126.834 162.317 127.18L154.368 129.599C154.023 129.714 153.792 130.06 153.792 130.406C153.908 130.751 154.253 130.982 154.599 130.982L162.548 128.562C163.584 128.332 164.736 128.332 165.773 128.678C166.234 128.793 166.58 128.562 166.695 128.217C167.04 127.756 166.925 127.295 166.464 127.18ZM182.247 121.19L174.298 123.609C173.031 124.07 171.879 124.876 170.842 125.913C170.612 126.258 170.612 126.719 170.957 126.95C171.303 127.18 171.764 127.18 171.994 126.834C172.685 126.028 173.607 125.452 174.759 125.106L182.708 122.687C183.053 122.572 183.284 122.226 183.284 121.881C183.053 121.305 182.708 121.19 182.247 121.19ZM167.501 130.521C166.234 130.06 164.736 130.175 163.354 130.521L155.405 132.94C155.06 133.055 154.829 133.401 154.829 133.746C154.944 134.092 155.29 134.322 155.636 134.322L163.584 131.903C164.621 131.673 165.773 131.673 166.81 132.018C167.271 132.134 167.616 131.903 167.732 131.558C168.192 131.097 167.962 130.751 167.501 130.521ZM183.284 124.646L175.335 127.065C174.068 127.526 172.916 128.332 171.879 129.369C171.648 129.714 171.648 130.175 171.994 130.406C172.34 130.636 172.8 130.636 173.031 130.29C173.722 129.484 174.644 128.908 175.796 128.562L183.744 126.143C184.09 126.028 184.32 125.682 184.32 125.337C184.205 124.761 183.744 124.646 183.284 124.646ZM168.538 134.092C167.271 133.631 165.773 133.746 164.391 134.092L156.442 136.511C156.096 136.626 155.866 136.857 155.866 137.318C155.981 137.778 156.327 137.894 156.672 137.894L164.621 135.474C165.658 135.244 166.81 135.244 167.847 135.59C168.308 135.705 168.653 135.474 168.768 135.129C169.114 134.668 168.999 134.322 168.538 134.092ZM184.32 128.217L176.372 130.636C175.104 131.097 173.952 131.903 172.916 132.94C172.685 133.286 172.685 133.746 173.031 133.977C173.376 134.207 173.837 134.207 174.068 133.862C174.759 133.055 175.68 132.479 176.832 132.134L184.781 129.714C185.127 129.599 185.357 129.254 185.357 128.908C185.127 128.562 184.781 128.102 184.32 128.217ZM165.428 137.548L157.479 139.967C157.133 140.082 156.903 140.428 156.903 140.774C157.018 141.119 157.364 141.35 157.709 141.35L165.658 138.93C166.695 138.7 167.847 138.7 168.884 139.046C169.344 139.161 169.69 138.93 169.805 138.585C169.92 138.239 169.69 137.778 169.344 137.663C168.308 137.202 166.81 137.202 165.428 137.548ZM185.472 131.673L177.524 134.092C176.256 134.553 175.104 135.359 174.068 136.396C173.837 136.742 173.837 137.202 174.183 137.433C174.528 137.663 174.989 137.663 175.22 137.318C175.911 136.511 176.832 135.935 177.984 135.59L185.933 133.17C186.279 133.055 186.509 132.71 186.509 132.364C186.279 131.788 185.818 131.442 185.472 131.673Z" fill="black"/>
</g>
<g opacity="0.1">
<path d="M255.169 105.523C256.091 105.869 257.243 105.523 257.589 104.486C257.934 103.449 257.588 102.413 256.552 102.067C255.63 101.721 254.478 102.067 254.133 103.104C253.787 104.025 254.248 105.177 255.169 105.523ZM255.976 103.334C256.206 103.449 256.321 103.68 256.321 103.91C256.206 104.141 255.976 104.256 255.745 104.256C255.515 104.256 255.4 103.91 255.4 103.68C255.4 103.449 255.86 103.334 255.976 103.334ZM254.478 107.597C253.556 107.251 252.404 107.597 252.059 108.633C251.713 109.67 252.059 110.707 253.096 111.053C254.017 111.398 255.169 111.053 255.515 110.016C255.861 108.979 255.4 107.942 254.478 107.597ZM253.557 109.785C253.326 109.67 253.211 109.44 253.211 109.209C253.211 108.979 253.556 108.864 253.787 108.864C254.017 108.864 254.133 109.209 254.133 109.44C254.133 109.67 253.787 109.785 253.557 109.785ZM253.787 106.214C254.132 105.293 253.787 104.141 252.75 103.795C251.828 103.449 250.676 103.795 250.331 104.832C249.985 105.869 250.331 106.905 251.368 107.251C252.289 107.597 253.441 107.251 253.787 106.214ZM251.944 105.869C251.713 105.753 251.598 105.523 251.598 105.293C251.598 105.062 251.944 104.947 252.174 104.947C252.404 104.947 252.52 105.293 252.52 105.523C252.404 105.984 252.174 105.869 251.944 105.869ZM258.28 105.869C257.358 105.523 256.206 105.869 255.861 106.905C255.515 107.942 255.86 108.979 256.897 109.325C257.934 109.67 258.971 109.325 259.317 108.288C259.662 107.251 259.201 106.099 258.28 105.869ZM257.473 107.942C257.243 107.827 257.128 107.597 257.128 107.366C257.128 107.136 257.473 107.021 257.704 107.021C257.934 107.021 258.049 107.366 258.049 107.597C257.934 108.057 257.588 108.057 257.473 107.942ZM234.433 101.837C232.705 101.145 230.747 102.067 229.941 103.91C229.249 105.638 230.171 107.597 232.014 108.403C233.742 109.094 235.7 108.173 236.507 106.329C237.198 104.371 236.276 102.528 234.433 101.837ZM232.705 106.79C231.784 106.445 231.208 105.177 231.553 104.256C231.899 103.334 233.166 102.758 234.088 103.104C235.009 103.449 235.585 104.717 235.24 105.638C234.779 106.675 233.627 107.136 232.705 106.79ZM260.469 120.499L262.312 105.984C262.657 104.141 262.312 102.182 261.16 100.685C260.929 100.339 260.699 100.224 260.584 99.763L260.699 99.4174C261.16 98.035 260.468 96.307 259.086 95.8462L257.589 95.2702C256.206 94.8094 254.593 95.5006 254.017 96.883L253.902 97.2286C253.326 97.2286 252.75 97.459 252.289 97.9198L245.838 95.5006C245.492 95.3854 245.147 95.5006 244.917 95.8462C244.801 96.1918 244.916 96.5374 245.262 96.7678L251.598 99.187L251.137 100.569C250.792 101.376 249.985 101.721 249.179 101.491L236.507 96.6526C235.816 96.307 235.355 95.5006 235.585 94.6942L236.046 93.3118L242.267 95.731C242.612 95.8462 242.958 95.731 243.189 95.3854C243.304 95.0398 243.188 94.6942 242.843 94.4638L236.507 92.0446C236.276 91.4686 236.046 90.8926 235.701 90.547L235.816 90.0862C236.276 88.7038 235.585 86.9758 234.203 86.515L232.705 85.939C231.323 85.4782 229.71 86.1694 229.134 87.5518L229.019 87.8974C228.673 87.8974 228.328 87.8974 227.982 88.1278C226.139 88.7038 224.641 89.8558 223.489 91.3534L215.425 103.449C214.273 105.062 213.812 106.79 213.812 108.518C213.928 109.901 214.619 111.168 215.771 111.974C218.19 113.817 221.531 113.702 223.835 111.629L226.945 108.173C227.291 107.712 227.521 107.597 227.521 107.597C227.521 107.597 227.636 107.597 227.752 107.942C229.364 110.707 232.82 112.089 235.931 110.937L240.769 112.896C241.46 114.278 242.612 115.315 243.995 116.006C245.492 116.697 247.105 116.697 248.718 116.237C248.948 116.121 249.064 116.121 249.064 116.121C249.064 116.121 249.179 116.237 249.064 116.813V121.421C249.294 123.84 250.792 125.913 252.981 126.72C253.557 126.95 254.132 127.065 254.593 127.181C255.976 127.296 257.243 126.835 258.28 125.913C259.662 124.185 260.353 122.457 260.469 120.499ZM257.128 96.6526L258.625 97.2286C259.201 97.459 259.547 98.035 259.432 98.611C258.971 98.2654 258.28 97.9198 257.819 97.6894C257.128 97.3438 256.321 97.3438 255.63 97.2286C255.745 96.7678 256.552 96.307 257.128 96.6526ZM232.129 87.091L233.627 87.667C234.318 87.8974 234.548 88.4734 234.433 89.1646C233.857 88.7038 233.166 88.3582 232.475 88.0126C231.899 87.7822 231.208 87.667 230.632 87.5518C230.977 87.091 231.553 86.8606 232.129 87.091ZM254.709 125.337C252.75 125.107 250.216 123.379 250.216 121.19V116.582C250.446 115.891 249.985 115.085 249.409 114.739C248.948 114.393 248.257 114.278 247.681 114.509C245.147 115.43 242.382 114.048 241.345 111.744C241.23 111.629 241.115 111.513 241 111.398L235.816 109.44C235.585 109.325 235.47 109.44 235.355 109.555C232.936 110.592 230.056 109.785 228.789 107.481C228.443 106.905 228.097 106.56 227.291 106.329C226.6 106.214 225.908 106.675 225.448 107.251L222.337 110.707C220.84 112.32 217.96 112.32 216.232 110.822C214.504 109.325 214.388 107.021 216.232 104.256L224.526 92.1598C225.563 90.4318 227.291 89.395 229.365 89.2798C229.365 89.2798 229.48 89.2798 229.48 89.1646C230.171 89.2798 230.977 89.2798 231.784 89.6254C232.705 89.971 233.512 90.4318 233.973 91.0078C234.433 91.2382 234.664 91.8142 234.779 92.1598L233.973 94.1182C233.397 95.6158 234.088 97.2286 235.585 97.8046L248.257 102.643C249.755 103.219 251.368 102.528 251.944 101.03L252.75 99.0718C253.096 98.8414 253.672 98.7262 254.133 98.7262H254.248C255.054 98.7262 255.976 98.9566 256.897 99.187C257.588 99.5326 258.28 99.763 258.856 100.454C258.856 100.454 258.971 100.454 258.971 100.569C260.353 102.067 261.044 104.025 260.584 105.869L258.741 120.384C258.741 123.609 257.128 125.453 254.709 125.337ZM247.566 106.79C245.838 106.099 243.88 107.021 243.073 108.864C242.382 110.592 243.304 112.55 245.147 113.357C246.875 114.048 248.833 113.126 249.64 111.283C250.216 109.44 249.294 107.366 247.566 106.79ZM245.723 111.744C244.801 111.398 244.225 110.131 244.571 109.209C244.916 108.288 246.184 107.712 247.105 108.057C248.027 108.403 248.603 109.67 248.257 110.592C247.796 111.629 246.644 112.089 245.723 111.744ZM231.669 95.6158L231.438 95.5006L231.553 95.2702C232.014 94.1182 231.438 92.851 230.286 92.3902C229.134 91.9294 227.867 92.5054 227.406 93.6574L227.291 93.8878L226.945 93.7726C225.793 93.3118 224.526 93.8878 224.065 95.0398C223.604 96.0766 224.296 97.459 225.333 97.9198L225.563 98.035L225.448 98.2654C224.987 99.4174 225.563 100.685 226.715 101.145C227.867 101.606 229.134 101.03 229.595 99.8782L229.71 99.6478L229.941 99.763C231.093 100.224 232.36 99.6478 232.821 98.4958C233.166 97.3438 232.705 96.0766 231.669 95.6158ZM230.517 98.3806L229.595 98.035C229.249 97.9198 228.904 98.035 228.673 98.3806L228.328 99.3022C228.212 99.763 227.636 99.9934 227.406 99.763C226.945 99.6478 226.715 99.0718 226.945 98.8414V98.7262L227.291 97.8046C227.406 97.459 227.291 97.1134 226.945 96.883L226.024 96.5374C225.563 96.4222 225.332 95.8462 225.563 95.5006C225.793 95.155 226.254 94.8094 226.6 95.0398L227.521 95.3854C227.867 95.5006 228.212 95.3854 228.443 95.0398L228.789 94.1182C228.904 93.6574 229.48 93.427 229.71 93.6574C230.171 93.7726 230.401 94.3486 230.171 94.579V94.6942L229.825 95.6158C229.71 95.9614 229.825 96.307 230.171 96.5374L231.093 96.883C231.553 96.9982 231.784 97.5742 231.553 97.9198C231.323 98.3806 230.862 98.611 230.517 98.3806ZM239.733 101.721L238.811 101.376C238.465 101.261 238.12 101.376 237.889 101.721C237.659 102.067 237.889 102.413 238.235 102.643L239.157 102.989C239.502 103.104 239.848 102.989 240.078 102.643C240.308 102.297 240.078 101.837 239.733 101.721Z" fill="black"/>
<path d="M244.221 103.449L243.3 103.104C242.954 102.989 242.609 103.104 242.378 103.449C242.263 103.795 242.378 104.141 242.724 104.371L243.645 104.717C243.991 104.832 244.337 104.717 244.567 104.371C244.682 104.025 244.682 103.565 244.221 103.449ZM240.996 106.099L240.074 105.753C239.729 105.638 239.383 105.753 239.153 106.099C239.037 106.445 239.153 106.79 239.498 107.021L240.42 107.366C240.765 107.481 241.111 107.366 241.341 107.021C241.457 106.675 241.341 106.214 240.996 106.099Z" fill="black"/>
</g>
<g opacity="0.1">
<path d="M4.95565 109.094L23.2724 103.68C24.194 103.334 25.1156 103.795 25.6916 104.601L32.0276 102.758C33.41 102.297 34.6772 103.104 35.138 104.371L37.7876 103.68C39.8612 102.988 41.9348 104.256 42.5108 106.214V106.56L47.81 104.947C48.1556 104.947 48.6164 105.177 48.6164 105.408C48.6164 105.753 48.386 106.214 48.1556 106.214L42.8564 107.712V108.057C43.4324 110.131 42.2804 112.204 40.322 112.78L37.6724 113.472C38.018 114.739 37.2116 116.121 35.9444 116.582L29.6084 118.425C29.4932 119.347 28.9172 120.153 27.9956 120.499L23.1572 121.881C23.618 122.572 24.194 123.148 24.77 123.609C25.5764 124.416 26.2676 124.992 26.3828 125.798C26.498 127.756 25.1156 128.217 22.1204 129.139L23.618 134.208L27.3044 133.056C29.1476 132.48 31.2212 133.516 31.7972 135.59L32.4884 137.894C32.7188 138.585 32.3732 139.276 31.682 139.507L17.858 143.654C17.1668 143.884 16.4756 143.424 16.2452 142.848L14.8628 138.355C14.6324 137.664 14.978 136.972 15.6692 136.742L16.3604 136.512L15.0932 132.249C15.0932 131.904 15.2084 131.443 15.554 131.443C15.8996 131.443 16.3604 131.673 16.3604 131.904L17.6276 136.166L22.1204 134.784L18.6644 123.379L14.1716 124.761L15.3236 128.793C15.3236 129.139 15.2084 129.6 14.8628 129.6C14.5172 129.6 14.0564 129.369 14.0564 129.139L12.9044 125.107L9.67885 126.028C6.91405 126.835 4.03405 125.337 3.22765 122.572L1.26925 115.776C0.462849 112.896 2.19085 109.9 4.95565 109.094ZM17.6276 142.041L31.106 138.124L30.53 136.051C30.1844 134.784 28.9172 134.323 27.7652 134.553L16.4756 137.894L17.6276 142.041ZM41.7044 108.403L41.1284 106.329C40.7828 105.062 39.5156 104.486 38.2485 104.832L35.5988 105.523L36.29 108.172L38.3636 107.481C38.7092 107.481 39.17 107.712 39.17 107.942C39.17 108.288 38.9396 108.748 38.7092 108.748L36.6356 109.44L37.3268 112.089L39.9764 111.398C41.3588 110.937 42.05 109.555 41.7044 108.403ZM36.4052 113.702L33.7556 104.716C33.6404 104.256 33.0644 103.795 32.258 103.91L30.4148 104.486L33.6404 115.66L35.4836 115.084C36.29 114.854 36.6356 114.393 36.4052 113.702ZM28.3412 118.08L26.8436 113.241C26.8436 112.896 26.9588 112.435 27.3044 112.435C27.65 112.435 28.1108 112.665 28.1108 112.896L29.378 116.928L32.3732 116.006L29.1476 104.832L26.1524 105.753L27.1892 109.555C27.1892 109.9 27.074 110.361 26.7284 110.361C26.3828 110.361 25.922 110.131 25.922 109.9L24.5396 105.408C24.4244 104.947 23.9636 104.716 23.618 104.832L7.25965 109.67L11.4068 123.84L27.7652 119.001C28.226 118.886 28.4564 118.425 28.3412 118.08ZM21.89 127.756C24.8852 126.835 25.1156 126.72 25.0004 125.798C25.0004 125.568 24.3092 124.992 23.9636 124.531C23.1572 123.84 22.466 123.033 21.89 122.112L20.3924 122.572L21.89 127.756ZM4.72525 121.881C5.41645 123.955 7.49005 125.107 9.44845 124.416L9.90925 124.3L5.76205 110.361L5.30125 110.476C3.22765 111.168 2.07565 113.241 2.76685 115.2L4.72525 121.881ZM20.6228 110.937L13.7108 113.011C13.3652 113.011 12.9044 112.78 12.9044 112.55C12.9044 112.204 13.0196 111.744 13.3652 111.744L20.2772 109.67C20.6228 109.67 21.0836 109.9 21.0836 110.131C21.1988 110.361 20.8532 110.822 20.6228 110.937ZM21.5444 113.932L14.6324 116.006C14.2868 116.006 13.826 115.776 13.826 115.545C13.826 115.2 13.9412 114.739 14.2868 114.739L21.1988 112.665C21.5444 112.665 22.0052 112.896 22.0052 113.126C22.0052 113.356 21.7748 113.817 21.5444 113.932ZM14.5172 118.54C14.5172 118.195 14.6324 117.734 14.978 117.734L21.89 115.66C22.2356 115.66 22.6964 115.891 22.6964 116.121C22.6964 116.467 22.5812 116.928 22.2356 116.928L15.3236 119.001C15.0932 119.116 14.7476 118.771 14.5172 118.54Z" fill="black"/>
</g>
</g>
</g>
<defs>
<clipPath id="clip0_8256_26540">
<rect width="288" height="149.76" fill="white"/>
</clipPath>
</defs>
</svg>
